<svg width="56" height="56" viewBox="0 0 56 56" fill="none" xmlns="http://www.w3.org/2000/svg">
<path d="M40.2241 2.70655C43.8329 -0.902276 49.6845 -0.902088 53.2935 2.70655C56.9024 6.31546 56.9024 12.167 53.2935 15.7759L44.9399 24.1284C43.4003 27.3263 43.3493 29.0962 44.9126 31.8433L53.2837 40.2153C56.8926 43.8243 56.8926 49.6748 53.2837 53.2837C49.6748 56.8926 43.8242 56.8926 40.2153 53.2837L31.8892 44.9585C28.6676 43.7155 26.8938 43.6762 24.1226 44.9448L15.7856 53.2837C12.1767 56.8926 6.32523 56.8926 2.71631 53.2837C-0.892235 49.6748 -0.892241 43.8242 2.71631 40.2153L11.0562 31.8735C12.3232 29.104 12.2846 27.331 11.0415 24.1099L2.70654 15.7759C-0.902087 12.1669 -0.902274 6.31537 2.70654 2.70655C6.31536 -0.902275 12.1669 -0.90208 15.7759 2.70655L24.1255 11.0562C26.8944 12.3232 28.6674 12.285 31.8862 11.0435L40.2241 2.70655Z" fill="url(#paint0_linear_2191_1353)"/>
<defs>
<linearGradient id="paint0_linear_2191_1353" x1="44.5" y1="-0.000489808" x2="34.0001" y2="44.4996" gradientUnits="userSpaceOnUse">
<stop stop-color="#04A5FD"/>
<stop offset="1" stop-color="#CF45A1"/>
</linearGradient>
</defs>
</svg>
