<svg width="199" height="56" viewBox="0 0 199 56" fill="none" xmlns="http://www.w3.org/2000/svg">
<path d="M40.2241 2.70655C43.8329 -0.902276 49.6845 -0.902088 53.2935 2.70655C56.9024 6.31546 56.9024 12.167 53.2935 15.7759L44.9399 24.1284C43.4003 27.3263 43.3493 29.0962 44.9126 31.8433L53.2837 40.2153C56.8926 43.8243 56.8926 49.6748 53.2837 53.2837C49.6748 56.8926 43.8242 56.8926 40.2153 53.2837L31.8892 44.9585C28.6676 43.7155 26.8938 43.6762 24.1226 44.9448L15.7856 53.2837C12.1767 56.8926 6.32523 56.8926 2.71631 53.2837C-0.892235 49.6748 -0.892241 43.8242 2.71631 40.2153L11.0562 31.8735C12.3232 29.104 12.2846 27.331 11.0415 24.1099L2.70654 15.7759C-0.902087 12.1669 -0.902274 6.31537 2.70654 2.70655C6.31536 -0.902275 12.1669 -0.90208 15.7759 2.70655L24.1255 11.0562C26.8944 12.3232 28.6674 12.285 31.8862 11.0435L40.2241 2.70655Z" fill="url(#paint0_linear_2191_1389)"/>
<path d="M75.8552 19.3355C74.4252 19.3355 73.2119 18.8372 72.2152 17.8405C71.2186 16.8438 70.7202 15.6305 70.7202 14.2005C70.7202 12.7705 71.2186 11.5572 72.2152 10.5605C73.2119 9.52049 74.4252 9.00049 75.8552 9.00049C77.2852 9.00049 78.4986 9.52049 79.4952 10.5605C80.5352 11.5572 81.0552 12.7705 81.0552 14.2005C81.0552 15.6305 80.5352 16.8438 79.4952 17.8405C78.4986 18.8372 77.2852 19.3355 75.8552 19.3355ZM71.4352 55.7355C69.3552 55.7355 67.6652 55.0855 66.3652 53.7855C65.1086 52.4855 64.4802 50.5355 64.4802 47.9355C64.4802 46.8522 64.6536 45.4438 65.0002 43.7105L69.4202 22.8455H78.7802L74.1002 44.9455C73.9269 45.5955 73.8402 46.2888 73.8402 47.0255C73.8402 47.8922 74.0352 48.5205 74.4252 48.9105C74.8586 49.2572 75.5519 49.4305 76.5052 49.4305C77.7619 49.4305 78.9319 48.9105 80.0152 47.8705C81.0986 46.7872 81.8786 45.4005 82.3552 43.7105H85.0852C83.4819 48.3905 81.4236 51.5755 78.9102 53.2655C76.3969 54.9122 73.9052 55.7355 71.4352 55.7355Z" fill="#27213A"/>
<path d="M121.849 55.7355C119.206 55.7355 117.256 55.0422 115.999 53.6555C114.786 52.2255 114.179 50.4705 114.179 48.3905C114.179 47.4805 114.288 46.4622 114.504 45.3355C114.721 44.1655 114.938 43.0388 115.154 41.9555C115.414 40.8722 115.588 40.1788 115.674 39.8755C116.021 38.3588 116.346 36.8638 116.649 35.3905C116.953 33.9172 117.104 32.7255 117.104 31.8155C117.104 29.6055 116.324 28.5005 114.764 28.5005C113.638 28.5005 112.641 29.0638 111.774 30.1905C110.908 31.2738 110.214 32.7038 109.694 34.4805L105.274 55.3455H95.9143L100.659 32.9205C100.789 32.4005 100.854 31.8588 100.854 31.2955C100.854 29.3888 100.204 28.4355 98.9043 28.4355C97.691 28.4355 96.6293 28.9988 95.7193 30.1255C94.8527 31.2088 94.1593 32.6605 93.6393 34.4805L89.2193 55.3455H79.8593L86.7493 22.8455H96.1093L95.3943 26.2255C97.6043 23.7555 100.248 22.5205 103.324 22.5205C107.138 22.5205 109.369 24.3838 110.019 28.1105C112.403 24.4272 115.414 22.5855 119.054 22.5855C121.264 22.5855 123.019 23.1922 124.319 24.4055C125.619 25.6188 126.269 27.4605 126.269 29.9305C126.269 31.1872 126.118 32.5955 125.814 34.1555C125.511 35.6722 125.078 37.5355 124.514 39.7455C124.168 41.0888 123.843 42.4105 123.539 43.7105C123.279 44.9672 123.149 45.9638 123.149 46.7005C123.149 47.5672 123.344 48.2388 123.734 48.7155C124.124 49.1922 124.796 49.4305 125.749 49.4305C127.049 49.4305 128.089 48.9755 128.869 48.0655C129.649 47.1122 130.429 45.6605 131.209 43.7105H133.939C132.336 48.4772 130.473 51.6838 128.349 53.3305C126.269 54.9338 124.103 55.7355 121.849 55.7355Z" fill="#27213A"/>
<path d="M137.641 55.7355C135.561 55.7355 133.871 55.0855 132.571 53.7855C131.315 52.4855 130.686 50.5355 130.686 47.9355C130.686 46.8522 130.86 45.4438 131.206 43.7105L138.161 11.1455L147.781 9.84549L140.306 44.9455C140.133 45.5955 140.046 46.2888 140.046 47.0255C140.046 47.8922 140.241 48.5205 140.631 48.9105C141.065 49.2572 141.758 49.4305 142.711 49.4305C143.968 49.4305 145.138 48.9105 146.221 47.8705C147.305 46.7872 148.085 45.4005 148.561 43.7105H151.291C149.688 48.3905 147.63 51.5755 145.116 53.2655C142.603 54.9122 140.111 55.7355 137.641 55.7355Z" fill="#27213A"/>
<path d="M157.83 55.7355C154.624 55.7355 152.132 54.9122 150.355 53.2655C148.579 51.5755 147.69 48.9538 147.69 45.4005C147.69 42.4105 148.275 39.1172 149.445 35.5205C150.615 31.9238 152.522 28.8255 155.165 26.2255C157.809 23.5822 161.167 22.2605 165.24 22.2605C170.007 22.2605 172.39 24.3405 172.39 28.5005C172.39 30.9272 171.697 33.1588 170.31 35.1955C168.924 37.2322 167.082 38.8788 164.785 40.1355C162.489 41.3488 160.04 42.0422 157.44 42.2155C157.354 43.5155 157.31 44.3822 157.31 44.8155C157.31 46.9388 157.679 48.3905 158.415 49.1705C159.152 49.9072 160.344 50.2755 161.99 50.2755C164.33 50.2755 166.324 49.7338 167.97 48.6505C169.66 47.5672 171.502 45.9205 173.495 43.7105H175.705C170.895 51.7272 164.937 55.7355 157.83 55.7355ZM157.96 39.0955C159.564 39.0088 161.08 38.4455 162.51 37.4055C163.984 36.3655 165.154 35.0438 166.02 33.4405C166.93 31.8372 167.385 30.1472 167.385 28.3705C167.385 26.5938 166.844 25.7055 165.76 25.7055C164.2 25.7055 162.662 27.0705 161.145 29.8005C159.672 32.5305 158.61 35.6288 157.96 39.0955Z" fill="#27213A"/>
<path d="M177.902 22.8455H187.262L186.417 26.8755C187.89 25.5755 189.212 24.5788 190.382 23.8855C191.595 23.1922 192.895 22.8455 194.282 22.8455C195.668 22.8455 196.752 23.3222 197.532 24.2755C198.355 25.2288 198.767 26.3772 198.767 27.7205C198.767 28.9772 198.355 30.0822 197.532 31.0355C196.708 31.9888 195.56 32.4655 194.087 32.4655C193.133 32.4655 192.483 32.2488 192.137 31.8155C191.833 31.3388 191.595 30.6672 191.422 29.8005C191.292 29.2372 191.162 28.8255 191.032 28.5655C190.902 28.3055 190.663 28.1755 190.317 28.1755C189.407 28.1755 188.627 28.3705 187.977 28.7605C187.37 29.1072 186.568 29.7355 185.572 30.6455L180.372 55.3455H171.012L177.902 22.8455Z" fill="#27213A"/>
<defs>
<linearGradient id="paint0_linear_2191_1389" x1="44.5" y1="-0.000489808" x2="34.0001" y2="44.4996" gradientUnits="userSpaceOnUse">
<stop stop-color="#04A5FD"/>
<stop offset="1" stop-color="#CF45A1"/>
</linearGradient>
</defs>
</svg>
